<?xml version="1.0" encoding="utf-8"?>
<!-- Generator: Adobe Illustrator 20.0.0, SVG Export Plug-In . SVG Version: 6.00 Build 0)  -->
<svg version="1.1" xmlns="http://www.w3.org/2000/svg" xmlns:xlink="http://www.w3.org/1999/xlink" x="0px" y="0px"
	 viewBox="0 0 512 512" style="enable-background:new 0 0 512 512;" xml:space="preserve">
<style type="text/css">
	.st0{fill:none;stroke:#333333;stroke-width:22;stroke-miterlimit:10;}
	.st1{fill:#414042;}
</style>
<g id="Layer_2">
</g>
<g id="Layer_1">
	<rect x="40.1" y="34.4" class="st0" width="431.8" height="443.2"/>
</g>
<g id="Layer_3">
	<g>
		<path class="st1" d="M222,316.3h-29.9l-86.2-162.6v162.6H83.3V134.5h37.5l78.6,148.4V134.5H222V316.3z"/>
	</g>
	<g>
		<path class="st1" d="M365.9,316h-24.2v-89H251v89h-24.2V134.2H251v71.3h90.7v-71.3h24.2V316z"/>
	</g>
	<g>
		<path class="st1" d="M433.7,351c2.8,2.5,5.1,5.7,6.9,9.5c1.8,3.8,2.7,8.7,2.7,14.8c0,6-1.1,11.5-3.3,16.4c-2.2,5-5.2,9.3-9.1,13
			c-4.4,4.1-9.6,7.1-15.5,9.1c-5.9,2-12.5,2.9-19.6,2.9c-7.3,0-14.4-0.9-21.4-2.6s-12.8-3.6-17.3-5.7v-18.4h1.3
			c5,3.3,10.8,6,17.6,8.2c6.7,2.2,13.2,3.3,19.5,3.3c3.7,0,7.6-0.6,11.8-1.8c4.2-1.2,7.5-3,10.1-5.4c2.7-2.6,4.7-5.4,6-8.5
			c1.3-3.1,2-7,2-11.8c0-4.7-0.7-8.6-2.2-11.6s-3.6-5.5-6.2-7.3c-2.6-1.8-5.8-3.1-9.6-3.7c-3.8-0.7-7.8-1-12.1-1h-7.9v-14.6h6.2
			c8.9,0,16-1.9,21.3-5.6c5.3-3.7,8-9.2,8-16.3c0-3.2-0.7-5.9-2-8.3c-1.3-2.4-3.2-4.3-5.6-5.8c-2.5-1.5-5.2-2.6-8.1-3.2
			c-2.9-0.6-6.1-0.9-9.8-0.9c-5.6,0-11.5,1-17.8,3c-6.3,2-12.2,4.8-17.8,8.4h-0.9v-18.4c4.2-2.1,9.7-3.9,16.7-5.7
			c6.9-1.7,13.7-2.6,20.2-2.6c6.4,0,12,0.6,16.9,1.8c4.9,1.2,9.3,3,13.2,5.6c4.2,2.8,7.4,6.2,9.6,10.2c2.2,4,3.3,8.6,3.3,14
			c0,7.3-2.6,13.6-7.7,19c-5.1,5.4-11.2,8.8-18.1,10.2v1.2c2.8,0.5,6,1.5,9.7,2.9C428.1,346.9,431.1,348.7,433.7,351z"/>
	</g>
</g>
</svg>
