<svg id="Layer_1" data-name="Layer 1" xmlns="http://www.w3.org/2000/svg" viewBox="0 0 458.88 374.45"><defs><style>.cls-1{fill:#666667;}</style></defs><title>blaktip</title><polygon class="cls-1" points="229.58 130.05 99.57 234.05 229.58 313.05 359 233.94 229.58 130.05"/><polygon class="cls-1" points="229.46 0 177.14 157.85 229.47 115.55 281.25 157.64 229.46 0"/><polygon class="cls-1" points="90.58 241.5 156.24 282.01 0 313.93 90.58 241.5"/><polygon class="cls-1" points="368.3 241.36 302.64 281.87 458.88 313.79 368.3 241.36"/><polygon class="cls-1" points="367.48 226.2 306.2 177.29 367.74 27.6 367.48 226.2"/><polygon class="cls-1" points="367.67 305.68 301.89 292.73 367.67 374.45 367.67 305.68"/><polygon class="cls-1" points="229.47 0.49 177.15 158.34 229.48 116.05 281.26 158.13 229.47 0.49"/></svg>