<?xml version="1.0" encoding="utf-8"?>
<!-- Generator: Adobe Illustrator 20.0.0, SVG Export Plug-In . SVG Version: 6.00 Build 0)  -->
<svg version="1.1" id="Layer_1" xmlns="http://www.w3.org/2000/svg" xmlns:xlink="http://www.w3.org/1999/xlink" x="0px" y="0px"
	 viewBox="0 0 512 512" style="enable-background:new 0 0 512 512;" xml:space="preserve">
<g>
	<path d="M450.1,93.4c12.7,21.3,21.2,45.3,25.8,72.2c-13.8,3-27.3,4.5-40.8,4.5c-22.8,0-46.8-6-72-18V147
		c0-23.1-35.1-34.7-105.2-34.7c-72.5,0-108.8,11.6-108.8,34.7v4.9c-24.1,14.2-47.8,21.3-71.2,21.3c-13.9,0-27.7-2.6-41.5-7.7
		c4.4-25.3,13-49.4,25.9-72.2C92,82.3,122.9,74,155,68.5c32.1-5.5,65.4-8.2,100-8.2c35.8,0,69.9,2.7,102.5,8.2
		C390,74,420.8,82.3,450.1,93.4z M149.1,165.5v8.7c0,18.8-5.4,32.4-16.3,40.9c-10.9,8.5-28.2,12.8-52.1,12.8
		c-17.2,0-28.9-2.8-35-8.6c-6.2-5.7-9.3-16.5-9.3-32.5v-10.1c15.8,5.2,30.1,7.7,42.9,7.7C103.3,184.5,126.6,178.2,149.1,165.5z
		 M221.5,178.7h69.4V147h52v43.8l61.9,98.7c9.1,14.4,15,26.1,17.8,35.3s4.2,21.2,4.2,36.2v54.8H85.4V361c0-23.3,7.8-47.4,23.5-72.4
		l60.6-97.7V147h52V178.7z M191.1,216.4v20.2h28.8v-20.2H191.1z M191.1,251.1v20.2h28.8v-20.2H191.1z M191.1,285.8v20.2h28.8v-20.2
		H191.1z M240.3,216.4v20.2h28.8v-20.2H240.3z M240.3,251.1v20.2h28.8v-20.2H240.3z M240.3,285.8v20.2h28.8v-20.2H240.3z
		 M289.5,216.4v20.2h28.8v-20.2H289.5z M289.5,251.1v20.2h28.8v-20.2H289.5z M289.5,285.8v20.2h28.8v-20.2H289.5z M475.8,175.9v11.2
		c0,14.5-3.1,24.5-9.3,29.9c-6.2,5.4-17.6,8.1-34.3,8.1c-23.4,0-40.8-4.1-52.1-12.4c-11.3-8.3-17-21-17-38.2v-10.5
		c22.2,11.9,46.1,17.8,71.7,17.8C449.5,181.7,463.2,179.8,475.8,175.9z"/>
</g>
</svg>
